<?xml version="1.0" standalone="no"?>
<!DOCTYPE svg PUBLIC "-//W3C//DTD SVG 20010904//EN"
 "http://www.w3.org/TR/2001/REC-SVG-20010904/DTD/svg10.dtd">
<svg version="1.0" xmlns="http://www.w3.org/2000/svg"
 width="1024.000000pt" height="1024.000000pt" viewBox="0 0 1024.000000 1024.000000"
 preserveAspectRatio="xMidYMid meet">
<metadata>
Created by potrace 1.14, written by Peter Selinger 2001-2017
</metadata>
<g transform="translate(0.000000,1024.000000) scale(0.100000,-0.100000)"
fill="#000000" stroke="none">
<path d="M2910 10221 c-72 -21 -155 -69 -204 -117 -39 -39 -107 -136 -110
-158 -1 -6 -4 -15 -8 -21 -7 -13 -26 -105 -33 -165 -3 -23 -11 -86 -21 -165
-2 -16 -6 -43 -8 -60 -6 -34 -16 -106 -21 -150 -4 -28 -12 -90 -20 -160 -2
-16 -6 -46 -9 -65 -3 -19 -8 -57 -11 -85 -4 -27 -8 -57 -10 -65 -2 -8 -6 -40
-10 -71 -3 -31 -7 -65 -9 -75 -2 -11 -7 -46 -10 -79 -4 -33 -9 -67 -11 -75 -2
-8 -7 -40 -9 -70 -3 -30 -8 -66 -10 -80 -3 -14 -7 -47 -11 -75 -8 -69 -15
-116 -20 -145 -3 -14 -7 -50 -11 -80 -3 -30 -7 -66 -9 -80 -2 -14 -8 -63 -15
-110 -6 -47 -13 -99 -15 -117 -2 -17 -6 -49 -9 -70 -20 -139 -35 -252 -40
-298 -7 -58 -19 -150 -22 -170 -3 -11 -7 -38 -9 -60 -7 -55 -15 -115 -20 -145
-2 -14 -7 -50 -10 -80 -3 -30 -7 -62 -10 -70 -2 -8 -6 -42 -10 -75 -3 -33 -8
-71 -10 -85 -6 -32 -15 -94 -20 -146 -2 -22 -6 -54 -9 -70 -6 -36 -14 -96 -21
-154 -4 -25 -8 -56 -10 -70 -3 -14 -7 -47 -9 -74 -6 -52 -14 -107 -21 -146 -3
-13 -7 -54 -11 -90 -3 -36 -8 -73 -10 -84 -2 -10 -6 -44 -10 -75 -3 -31 -8
-65 -10 -76 -3 -17 -20 -138 -39 -290 -2 -16 -7 -50 -11 -75 -3 -25 -8 -61
-10 -80 -1 -19 -5 -44 -8 -56 -2 -11 -7 -47 -10 -80 -4 -32 -8 -66 -11 -74 -2
-8 -6 -40 -10 -70 -3 -30 -10 -80 -15 -110 -16 -98 -6 -217 25 -295 15 -38 34
-75 41 -81 8 -6 14 -16 14 -23 0 -6 5 -11 10 -11 6 0 10 -5 10 -11 0 -15 56
-65 115 -104 67 -44 136 -66 218 -70 38 -2 71 -6 74 -8 3 -3 16 -2 29 3 13 5
26 6 28 1 3 -4 25 -5 49 -1 25 3 54 3 65 -1 12 -5 24 -4 27 1 3 6 15 6 30 0
15 -6 27 -6 30 1 4 5 11 7 16 3 13 -8 417 -9 425 -1 3 3 16 2 28 -3 12 -4 29
-4 37 0 8 5 21 5 29 0 7 -4 24 -4 37 1 12 5 23 5 23 1 0 -8 52 -8 66 1 6 3 16
2 23 -3 8 -4 27 -4 42 0 16 5 29 5 29 1 0 -9 66 -5 82 5 6 4 9 3 5 -2 -6 -11
67 -9 85 2 6 4 9 3 5 -2 -6 -10 55 -10 72 1 6 3 11 3 11 -2 0 -9 112 -8 135 1
8 3 16 2 19 -2 5 -8 93 -8 102 1 3 3 11 4 18 1 22 -8 86 -10 86 -2 0 4 8 4 17
1 22 -8 64 -8 86 0 9 3 17 3 17 -1 0 -9 94 -7 109 2 6 4 11 3 11 -1 0 -5 24
-7 53 -5 28 1 57 3 62 3 271 -6 335 -8 339 -12 5 -5 -11 -83 -72 -334 -22 -93
-43 -181 -45 -195 -3 -14 -12 -52 -20 -85 -9 -33 -18 -71 -21 -85 -3 -14 -9
-40 -15 -59 -6 -19 -13 -52 -17 -75 -3 -22 -8 -45 -11 -50 -4 -5 -7 -19 -9
-30 -2 -12 -5 -28 -7 -36 -2 -8 -7 -26 -10 -40 -14 -55 -59 -244 -63 -264 -2
-11 -11 -50 -20 -86 -19 -76 -18 -73 -29 -125 -4 -22 -10 -44 -13 -50 -3 -5
-7 -18 -8 -30 -1 -11 -17 -78 -34 -150 -17 -71 -34 -141 -36 -155 -3 -14 -17
-70 -31 -125 -13 -55 -27 -109 -29 -120 -10 -52 -13 -63 -24 -105 -7 -25 -13
-52 -15 -60 -3 -12 -55 -236 -71 -305 -4 -17 -9 -39 -18 -80 -1 -5 -5 -19 -9
-30 -3 -11 -8 -31 -11 -45 -2 -14 -12 -54 -21 -90 -9 -36 -19 -76 -22 -90 -2
-14 -10 -50 -18 -80 -8 -30 -16 -66 -19 -80 -2 -14 -9 -45 -15 -70 -7 -25 -14
-56 -17 -69 -3 -14 -7 -28 -9 -32 -3 -4 -7 -24 -11 -44 -6 -40 -8 -49 -24
-110 -15 -59 -101 -416 -107 -445 -17 -85 -29 -166 -24 -170 3 -3 6 -18 5 -35
-2 -112 87 -270 196 -346 40 -28 130 -71 130 -62 0 3 7 0 15 -7 19 -16 177
-22 235 -9 81 18 165 64 227 125 59 59 99 112 95 127 -1 4 2 7 7 7 5 0 13 10
17 23 4 12 17 36 30 53 13 17 22 33 19 36 -3 3 1 11 10 18 8 7 15 19 15 26 0
8 5 14 10 14 6 0 10 4 10 10 0 5 32 64 71 132 40 67 80 136 89 153 10 16 41
71 70 120 29 50 61 106 72 125 11 19 30 51 41 70 12 19 29 47 37 62 40 73 93
164 159 278 41 69 81 139 91 155 115 199 176 305 189 329 9 17 20 35 24 40 5
6 23 37 40 68 58 104 231 403 237 408 3 3 14 23 25 45 11 22 25 47 31 55 7 8
26 42 44 75 18 33 35 62 39 65 3 3 12 17 18 32 7 15 24 46 39 70 15 24 27 44
26 45 -1 2 13 27 32 55 18 29 45 76 61 103 54 98 119 210 124 215 4 3 15 23
26 45 11 22 26 46 32 53 7 7 13 18 13 24 0 6 6 19 14 27 8 9 27 40 42 69 16
29 34 61 39 70 69 116 84 142 90 161 3 11 11 21 16 21 5 0 9 4 9 9 0 5 21 45
46 88 26 43 55 93 65 110 11 18 27 48 38 65 10 18 27 49 37 68 11 19 21 37 24
40 4 4 24 39 54 95 6 11 14 22 17 25 3 3 12 17 20 32 22 42 97 174 149 262 26
45 48 85 48 90 0 5 4 12 9 15 8 6 20 25 84 136 65 115 121 212 129 225 15 25
94 161 131 225 19 33 40 69 46 80 7 11 16 28 19 38 3 9 10 17 15 17 5 0 9 5 9
10 0 6 57 108 126 228 70 119 136 233 147 252 10 19 27 46 37 60 10 14 18 29
18 33 1 4 17 36 37 70 20 34 40 69 45 77 5 8 33 55 62 105 29 49 55 94 57 100
2 5 10 18 19 28 8 9 11 17 6 17 -5 0 -4 4 2 8 20 13 93 157 108 212 14 53 15
185 2 240 -12 52 -77 167 -118 209 -64 65 -170 128 -233 137 -5 1 -12 3 -15 4
-3 1 -38 4 -79 6 -41 2 -80 5 -88 8 -7 3 -15 1 -18 -3 -3 -5 -21 -5 -40 -1
-19 4 -35 4 -35 0 0 -4 -15 -4 -34 0 -19 4 -39 4 -46 0 -7 -4 -27 -4 -46 0
-19 4 -34 4 -34 0 0 -4 -18 -4 -40 0 -22 4 -40 4 -40 0 0 -4 -18 -4 -40 0 -22
4 -43 4 -45 0 -3 -4 -21 -4 -40 0 -19 4 -35 4 -35 0 0 -4 -18 -4 -40 0 -22 4
-40 4 -40 0 0 -4 -18 -4 -40 0 -22 4 -43 4 -45 0 -3 -4 -21 -4 -40 0 -19 4
-35 4 -35 0 0 -4 -18 -4 -40 0 -22 4 -40 4 -40 0 0 -4 -18 -4 -40 0 -22 4 -43
4 -45 0 -3 -4 -21 -4 -40 0 -19 4 -35 4 -35 0 0 -4 -18 -4 -40 0 -22 4 -40 4
-40 0 0 -4 -18 -4 -40 0 -22 4 -43 4 -45 0 -3 -4 -21 -4 -40 0 -19 4 -35 4
-35 0 0 -4 -18 -4 -40 0 -22 4 -40 4 -40 0 0 -4 -18 -4 -40 0 -22 4 -40 4 -40
0 0 -4 -15 -4 -34 0 -19 4 -39 4 -46 0 -7 -4 -27 -4 -46 0 -19 4 -34 4 -34 0
0 -4 -18 -4 -40 0 -22 4 -40 4 -40 0 0 -4 -18 -4 -40 0 -22 4 -43 4 -45 -1 -3
-4 -18 -4 -33 0 -15 4 -39 4 -54 0 -16 -4 -30 -4 -32 0 -4 6 -55 6 -81 1 -5
-1 -12 -2 -15 0 -3 1 -73 2 -157 4 -84 1 -155 5 -159 8 -3 4 26 104 65 222 39
118 71 222 71 231 0 8 4 15 8 15 5 0 9 6 9 13 0 10 82 270 100 317 3 8 7 20 9
25 1 6 14 44 29 85 14 41 28 86 31 99 3 13 9 32 14 41 5 9 11 28 14 41 3 13
17 58 31 99 15 41 28 82 30 91 2 8 10 32 19 52 8 21 15 40 16 42 0 3 0 6 1 8
0 1 2 11 4 23 3 12 14 42 25 68 11 26 20 54 20 61 0 8 5 26 12 42 11 29 13 34
22 68 8 31 126 387 136 410 16 38 162 494 159 497 -1 2 3 13 9 25 7 12 14 52
17 89 3 36 8 70 11 75 3 5 0 9 -6 9 -6 0 -9 4 -6 9 8 13 -21 115 -48 169 -53
104 -155 194 -271 238 -48 18 -103 19 -1580 20 -1390 2 -1535 0 -1585 -15z"/>
</g>
</svg>
